<svg id="svg" version="1.1" xmlns="http://www.w3.org/2000/svg" xmlns:xlink="http://www.w3.org/1999/xlink" width="400" height="400" viewBox="0, 0, 400,400"><g id="svgg"><path id="path0" d="M0.000 200.000 L 0.000 400.000 200.000 400.000 L 400.000 400.000 400.000 200.000 L 400.000 0.000 200.000 0.000 L 0.000 0.000 0.000 200.000 M261.258 152.691 C 264.667 154.646,264.967 158.988,261.874 161.591 L 260.684 162.593 200.000 162.593 L 139.316 162.593 138.126 161.591 C 135.033 158.988,135.333 154.646,138.742 152.691 L 140.185 151.864 200.000 151.864 L 259.815 151.864 261.258 152.691 M261.296 195.309 C 263.190 196.467,263.889 197.731,263.889 200.000 C 263.889 202.269,263.190 203.533,261.296 204.691 C 259.991 205.489,142.905 205.967,140.004 205.186 C 134.852 203.799,134.681 196.329,139.767 194.845 C 142.324 194.099,260.052 194.548,261.296 195.309 M261.874 238.409 C 264.967 241.012,264.667 245.354,261.258 247.309 L 259.815 248.136 200.000 248.136 L 140.185 248.136 138.742 247.309 C 135.333 245.354,135.033 241.012,138.126 238.409 L 139.316 237.407 200.000 237.407 L 260.684 237.407 261.874 238.409 " stroke="none" fill="#fcfcfc" fill-rule="evenodd"></path><path id="path1" d="M138.586 152.974 C 135.253 155.006,135.422 160.083,138.882 161.848 C 141.180 163.021,258.820 163.021,261.118 161.848 C 264.578 160.083,264.747 155.006,261.414 152.974 C 259.476 151.792,140.524 151.792,138.586 152.974 M138.629 195.541 C 137.977 195.938,137.163 196.807,136.819 197.470 C 135.547 199.930,136.362 203.077,138.629 204.459 C 140.492 205.595,259.508 205.595,261.371 204.459 C 264.572 202.508,264.572 197.492,261.371 195.541 C 259.508 194.405,140.492 194.405,138.629 195.541 M138.803 238.170 C 135.418 239.957,135.294 245.019,138.586 247.026 C 140.524 248.208,259.476 248.208,261.414 247.026 C 264.747 244.994,264.578 239.917,261.118 238.152 C 258.845 236.992,141.000 237.010,138.803 238.170 " stroke="none" fill="#e4e4e3" fill-rule="evenodd"></path><path id="path2" d="M170.463 152.130 C 186.708 152.183,213.292 152.183,229.537 152.130 C 245.782 152.076,232.491 152.033,200.000 152.033 C 167.509 152.033,154.218 152.076,170.463 152.130 M170.463 248.056 C 186.708 248.109,213.292 248.109,229.537 248.056 C 245.782 248.002,232.491 247.958,200.000 247.958 C 167.509 247.958,154.218 248.002,170.463 248.056 " stroke="none" fill="#ececec" fill-rule="evenodd"></path><path id="path3" d="M170.278 194.722 C 186.625 194.776,213.375 194.776,229.722 194.722 C 246.069 194.669,232.694 194.625,200.000 194.625 C 167.306 194.625,153.931 194.669,170.278 194.722 M170.278 205.463 C 186.625 205.516,213.375 205.516,229.722 205.463 C 246.069 205.410,232.694 205.366,200.000 205.366 C 167.306 205.366,153.931 205.410,170.278 205.463 " stroke="none" fill="#f4f4f4" fill-rule="evenodd"></path><path id="path4" d="" stroke="none" fill="#f4ecec" fill-rule="evenodd"></path></g></svg>